<mxfile host="embed.diagrams.net" modified="2023-11-17T14:26:37.950Z" agent="Mozilla/5.0 (Windows NT 10.0; Win64; x64) AppleWebKit/537.36 (KHTML, like Gecko) Chrome/119.0.0.0 Safari/537.36" etag="GLnAKKlTt9PUqY9zxE-m" version="22.1.3" type="embed">
  <diagram name="Page-1" id="10a91c8b-09ff-31b1-d368-03940ed4cc9e">
    <mxGraphModel grid="1" page="1" gridSize="10" guides="1" tooltips="1" connect="1" arrows="1" fold="1" pageScale="1" pageWidth="1100" pageHeight="850" background="none" math="0" shadow="0">
      <root>
        <mxCell id="0" />
        <mxCell id="1" parent="0" />
        <mxCell id="62893188c0fa7362-11" value="&lt;span&gt;Id_Client&lt;/span&gt;" style="whiteSpace=wrap;html=1;rounded=0;shadow=1;labelBackgroundColor=none;strokeWidth=2;fontFamily=Verdana;fontSize=12;align=center;" vertex="1" parent="1">
          <mxGeometry x="460" y="-1230" width="120" height="60" as="geometry" />
        </mxCell>
        <mxCell id="62893188c0fa7362-20" value="ID_Paiement" style="whiteSpace=wrap;html=1;rounded=0;shadow=1;labelBackgroundColor=none;strokeWidth=2;fontFamily=Verdana;fontSize=12;align=center;" vertex="1" parent="1">
          <mxGeometry x="670" y="-1470" width="120" height="60" as="geometry" />
        </mxCell>
        <mxCell id="62893188c0fa7362-21" value="&lt;span&gt;ID_Ville&lt;/span&gt;" style="whiteSpace=wrap;html=1;rounded=0;shadow=1;labelBackgroundColor=none;strokeWidth=2;fontFamily=Verdana;fontSize=12;align=center;" vertex="1" parent="1">
          <mxGeometry x="150" y="-1020" width="120" height="60" as="geometry" />
        </mxCell>
        <mxCell id="62893188c0fa7362-22" value="&lt;span&gt;ID_Livreur&lt;/span&gt;" style="whiteSpace=wrap;html=1;rounded=0;shadow=1;labelBackgroundColor=none;strokeWidth=2;fontFamily=Verdana;fontSize=12;align=center;" vertex="1" parent="1">
          <mxGeometry x="110" y="-570" width="120" height="60" as="geometry" />
        </mxCell>
        <mxCell id="62893188c0fa7362-23" value="&lt;span&gt;Id_Caissier&lt;/span&gt;" style="whiteSpace=wrap;html=1;rounded=0;shadow=1;labelBackgroundColor=none;strokeWidth=2;fontFamily=Verdana;fontSize=12;align=center;" vertex="1" parent="1">
          <mxGeometry x="640" y="-565" width="120" height="60" as="geometry" />
        </mxCell>
        <mxCell id="O_QZW4D6xSMb0RWuD4Pj-2" value="ID_Supplement" style="whiteSpace=wrap;html=1;rounded=0;shadow=1;labelBackgroundColor=none;strokeWidth=2;fontFamily=Verdana;fontSize=12;align=center;" vertex="1" parent="1">
          <mxGeometry x="640" y="-870" width="120" height="60" as="geometry" />
        </mxCell>
        <mxCell id="O_QZW4D6xSMb0RWuD4Pj-3" value="&lt;span&gt;ID_Commande&lt;/span&gt;" style="whiteSpace=wrap;html=1;rounded=0;shadow=1;labelBackgroundColor=none;strokeWidth=2;fontFamily=Verdana;fontSize=12;align=center;" vertex="1" parent="1">
          <mxGeometry x="390" y="-710" width="120" height="60" as="geometry" />
        </mxCell>
        <mxCell id="O_QZW4D6xSMb0RWuD4Pj-4" value="ID_Ingredient" style="whiteSpace=wrap;html=1;rounded=0;shadow=1;labelBackgroundColor=none;strokeWidth=2;fontFamily=Verdana;fontSize=12;align=center;" vertex="1" parent="1">
          <mxGeometry x="1450" y="-995" width="120" height="60" as="geometry" />
        </mxCell>
        <mxCell id="O_QZW4D6xSMb0RWuD4Pj-5" value="&lt;span&gt;ID_LigneCommande&lt;/span&gt;" style="whiteSpace=wrap;html=1;rounded=0;shadow=1;labelBackgroundColor=none;strokeWidth=2;fontFamily=Verdana;fontSize=12;align=center;" vertex="1" parent="1">
          <mxGeometry x="1100" y="-1360" width="140" height="60" as="geometry" />
        </mxCell>
        <mxCell id="O_QZW4D6xSMb0RWuD4Pj-6" value="&lt;span&gt;ID_Allergene&lt;/span&gt;" style="whiteSpace=wrap;html=1;rounded=0;shadow=1;labelBackgroundColor=none;strokeWidth=2;fontFamily=Verdana;fontSize=12;align=center;" vertex="1" parent="1">
          <mxGeometry x="1630" y="-825" width="120" height="60" as="geometry" />
        </mxCell>
        <mxCell id="O_QZW4D6xSMb0RWuD4Pj-7" value="&lt;span&gt;ID_Pizzaiolo&lt;/span&gt;" style="whiteSpace=wrap;html=1;rounded=0;shadow=1;labelBackgroundColor=none;strokeWidth=2;fontFamily=Verdana;fontSize=12;align=center;" vertex="1" parent="1">
          <mxGeometry x="1050" y="-920" width="120" height="60" as="geometry" />
        </mxCell>
        <mxCell id="O_QZW4D6xSMb0RWuD4Pj-8" value="ID_Pizza" style="whiteSpace=wrap;html=1;rounded=0;shadow=1;labelBackgroundColor=none;strokeWidth=2;fontFamily=Verdana;fontSize=12;align=center;" vertex="1" parent="1">
          <mxGeometry x="1200" y="-1140" width="120" height="60" as="geometry" />
        </mxCell>
        <mxCell id="O_QZW4D6xSMb0RWuD4Pj-9" value="NomClient" style="text;html=1;strokeColor=none;fillColor=none;align=center;verticalAlign=middle;whiteSpace=wrap;rounded=0;" vertex="1" parent="1">
          <mxGeometry x="270" y="-1105" width="60" height="30" as="geometry" />
        </mxCell>
        <mxCell id="O_QZW4D6xSMb0RWuD4Pj-10" value="PrenomClient" style="text;html=1;strokeColor=none;fillColor=none;align=center;verticalAlign=middle;whiteSpace=wrap;rounded=0;" vertex="1" parent="1">
          <mxGeometry x="390" y="-1105" width="60" height="30" as="geometry" />
        </mxCell>
        <mxCell id="O_QZW4D6xSMb0RWuD4Pj-11" value="NumTelClient" style="text;html=1;strokeColor=none;fillColor=none;align=center;verticalAlign=middle;whiteSpace=wrap;rounded=0;" vertex="1" parent="1">
          <mxGeometry x="490" y="-1105" width="60" height="30" as="geometry" />
        </mxCell>
        <mxCell id="O_QZW4D6xSMb0RWuD4Pj-12" value="AdresseMailClient" style="text;html=1;strokeColor=none;fillColor=none;align=center;verticalAlign=middle;whiteSpace=wrap;rounded=0;" vertex="1" parent="1">
          <mxGeometry x="610" y="-1105" width="60" height="30" as="geometry" />
        </mxCell>
        <mxCell id="O_QZW4D6xSMb0RWuD4Pj-13" value="MoyenDePaiment" style="text;html=1;strokeColor=none;fillColor=none;align=center;verticalAlign=middle;whiteSpace=wrap;rounded=0;" vertex="1" parent="1">
          <mxGeometry x="730" y="-1105" width="60" height="30" as="geometry" />
        </mxCell>
        <mxCell id="O_QZW4D6xSMb0RWuD4Pj-16" value="" style="endArrow=classic;html=1;rounded=0;entryX=0.5;entryY=0;entryDx=0;entryDy=0;exitX=0.5;exitY=1;exitDx=0;exitDy=0;" edge="1" parent="1" source="62893188c0fa7362-11" target="O_QZW4D6xSMb0RWuD4Pj-11">
          <mxGeometry width="50" height="50" relative="1" as="geometry">
            <mxPoint x="460" y="-1105" as="sourcePoint" />
            <mxPoint x="510" y="-1155" as="targetPoint" />
          </mxGeometry>
        </mxCell>
        <mxCell id="O_QZW4D6xSMb0RWuD4Pj-17" value="" style="endArrow=classic;html=1;rounded=0;entryX=0.5;entryY=0;entryDx=0;entryDy=0;" edge="1" parent="1" target="O_QZW4D6xSMb0RWuD4Pj-12">
          <mxGeometry width="50" height="50" relative="1" as="geometry">
            <mxPoint x="520" y="-1170" as="sourcePoint" />
            <mxPoint x="530" y="-1095" as="targetPoint" />
          </mxGeometry>
        </mxCell>
        <mxCell id="O_QZW4D6xSMb0RWuD4Pj-18" value="" style="endArrow=classic;html=1;rounded=0;entryX=0.5;entryY=0;entryDx=0;entryDy=0;" edge="1" parent="1" target="O_QZW4D6xSMb0RWuD4Pj-13">
          <mxGeometry width="50" height="50" relative="1" as="geometry">
            <mxPoint x="520" y="-1170" as="sourcePoint" />
            <mxPoint x="650" y="-1095" as="targetPoint" />
          </mxGeometry>
        </mxCell>
        <mxCell id="O_QZW4D6xSMb0RWuD4Pj-19" value="" style="endArrow=classic;html=1;rounded=0;entryX=0.75;entryY=0;entryDx=0;entryDy=0;" edge="1" parent="1" target="O_QZW4D6xSMb0RWuD4Pj-10">
          <mxGeometry width="50" height="50" relative="1" as="geometry">
            <mxPoint x="520" y="-1170" as="sourcePoint" />
            <mxPoint x="408.67" y="-1095" as="targetPoint" />
          </mxGeometry>
        </mxCell>
        <mxCell id="O_QZW4D6xSMb0RWuD4Pj-20" value="" style="endArrow=classic;html=1;rounded=0;entryX=0.577;entryY=0.024;entryDx=0;entryDy=0;exitX=0.5;exitY=1;exitDx=0;exitDy=0;entryPerimeter=0;" edge="1" parent="1" source="62893188c0fa7362-11" target="O_QZW4D6xSMb0RWuD4Pj-9">
          <mxGeometry width="50" height="50" relative="1" as="geometry">
            <mxPoint x="299.33000000000004" y="-1170" as="sourcePoint" />
            <mxPoint x="299.33000000000004" y="-1105" as="targetPoint" />
          </mxGeometry>
        </mxCell>
        <mxCell id="O_QZW4D6xSMb0RWuD4Pj-21" value="NomVille" style="text;html=1;strokeColor=none;fillColor=none;align=center;verticalAlign=middle;whiteSpace=wrap;rounded=0;" vertex="1" parent="1">
          <mxGeometry x="70" y="-920" width="60" height="30" as="geometry" />
        </mxCell>
        <mxCell id="O_QZW4D6xSMb0RWuD4Pj-26" value="" style="edgeStyle=orthogonalEdgeStyle;rounded=0;orthogonalLoop=1;jettySize=auto;html=1;entryX=0.5;entryY=0;entryDx=0;entryDy=0;exitX=0.5;exitY=1;exitDx=0;exitDy=0;" edge="1" parent="1" source="62893188c0fa7362-21" target="O_QZW4D6xSMb0RWuD4Pj-22">
          <mxGeometry relative="1" as="geometry">
            <mxPoint x="240" y="-950" as="sourcePoint" />
          </mxGeometry>
        </mxCell>
        <mxCell id="O_QZW4D6xSMb0RWuD4Pj-22" value="CodePostale" style="text;html=1;strokeColor=none;fillColor=none;align=center;verticalAlign=middle;whiteSpace=wrap;rounded=0;" vertex="1" parent="1">
          <mxGeometry x="180" y="-920" width="60" height="30" as="geometry" />
        </mxCell>
        <mxCell id="O_QZW4D6xSMb0RWuD4Pj-23" value="Adresse" style="text;html=1;strokeColor=none;fillColor=none;align=center;verticalAlign=middle;whiteSpace=wrap;rounded=0;" vertex="1" parent="1">
          <mxGeometry x="290" y="-920" width="60" height="30" as="geometry" />
        </mxCell>
        <mxCell id="O_QZW4D6xSMb0RWuD4Pj-24" value="" style="endArrow=classic;html=1;rounded=0;exitX=0.5;exitY=1;exitDx=0;exitDy=0;entryX=0.5;entryY=0;entryDx=0;entryDy=0;" edge="1" parent="1" source="62893188c0fa7362-21" target="O_QZW4D6xSMb0RWuD4Pj-23">
          <mxGeometry width="50" height="50" relative="1" as="geometry">
            <mxPoint x="250" y="-1000" as="sourcePoint" />
            <mxPoint x="300" y="-1050" as="targetPoint" />
          </mxGeometry>
        </mxCell>
        <mxCell id="O_QZW4D6xSMb0RWuD4Pj-27" value="" style="endArrow=classic;html=1;rounded=0;entryX=0.5;entryY=0;entryDx=0;entryDy=0;" edge="1" parent="1" target="O_QZW4D6xSMb0RWuD4Pj-21">
          <mxGeometry width="50" height="50" relative="1" as="geometry">
            <mxPoint x="210" y="-960" as="sourcePoint" />
            <mxPoint x="150" y="-950" as="targetPoint" />
          </mxGeometry>
        </mxCell>
        <mxCell id="O_QZW4D6xSMb0RWuD4Pj-28" value="NomSupplement" style="text;html=1;strokeColor=none;fillColor=none;align=center;verticalAlign=middle;whiteSpace=wrap;rounded=0;" vertex="1" parent="1">
          <mxGeometry x="560" y="-790" width="60" height="30" as="geometry" />
        </mxCell>
        <mxCell id="O_QZW4D6xSMb0RWuD4Pj-30" value="PrixSupplement" style="text;html=1;strokeColor=none;fillColor=none;align=center;verticalAlign=middle;whiteSpace=wrap;rounded=0;" vertex="1" parent="1">
          <mxGeometry x="780" y="-790" width="60" height="30" as="geometry" />
        </mxCell>
        <mxCell id="O_QZW4D6xSMb0RWuD4Pj-31" value="" style="endArrow=classic;html=1;rounded=0;exitX=0.5;exitY=1;exitDx=0;exitDy=0;entryX=0.5;entryY=0;entryDx=0;entryDy=0;" edge="1" parent="1" source="O_QZW4D6xSMb0RWuD4Pj-2" target="O_QZW4D6xSMb0RWuD4Pj-30">
          <mxGeometry width="50" height="50" relative="1" as="geometry">
            <mxPoint x="720" y="-770" as="sourcePoint" />
            <mxPoint x="810" y="-810" as="targetPoint" />
          </mxGeometry>
        </mxCell>
        <mxCell id="O_QZW4D6xSMb0RWuD4Pj-33" value="" style="endArrow=classic;html=1;rounded=0;entryX=0.5;entryY=0;entryDx=0;entryDy=0;" edge="1" parent="1" target="O_QZW4D6xSMb0RWuD4Pj-28">
          <mxGeometry width="50" height="50" relative="1" as="geometry">
            <mxPoint x="700" y="-810" as="sourcePoint" />
            <mxPoint x="820" y="-780" as="targetPoint" />
          </mxGeometry>
        </mxCell>
        <mxCell id="O_QZW4D6xSMb0RWuD4Pj-34" value="TypePaiement" style="text;html=1;strokeColor=none;fillColor=none;align=center;verticalAlign=middle;whiteSpace=wrap;rounded=0;" vertex="1" parent="1">
          <mxGeometry x="550" y="-1370" width="60" height="30" as="geometry" />
        </mxCell>
        <mxCell id="O_QZW4D6xSMb0RWuD4Pj-35" value="DatePaiement" style="text;html=1;strokeColor=none;fillColor=none;align=center;verticalAlign=middle;whiteSpace=wrap;rounded=0;" vertex="1" parent="1">
          <mxGeometry x="650" y="-1370" width="60" height="30" as="geometry" />
        </mxCell>
        <mxCell id="O_QZW4D6xSMb0RWuD4Pj-36" value="HeurePaiement" style="text;html=1;strokeColor=none;fillColor=none;align=center;verticalAlign=middle;whiteSpace=wrap;rounded=0;" vertex="1" parent="1">
          <mxGeometry x="770" y="-1370" width="60" height="30" as="geometry" />
        </mxCell>
        <mxCell id="O_QZW4D6xSMb0RWuD4Pj-37" value="montantPaiement" style="text;html=1;strokeColor=none;fillColor=none;align=center;verticalAlign=middle;whiteSpace=wrap;rounded=0;" vertex="1" parent="1">
          <mxGeometry x="890" y="-1370" width="60" height="30" as="geometry" />
        </mxCell>
        <mxCell id="O_QZW4D6xSMb0RWuD4Pj-39" value="" style="endArrow=classic;html=1;rounded=0;exitX=0.5;exitY=1;exitDx=0;exitDy=0;entryX=0.5;entryY=0;entryDx=0;entryDy=0;" edge="1" parent="1" source="62893188c0fa7362-20" target="O_QZW4D6xSMb0RWuD4Pj-34">
          <mxGeometry width="50" height="50" relative="1" as="geometry">
            <mxPoint x="500" y="-1350" as="sourcePoint" />
            <mxPoint x="610" y="-1510" as="targetPoint" />
          </mxGeometry>
        </mxCell>
        <mxCell id="O_QZW4D6xSMb0RWuD4Pj-40" value="" style="endArrow=classic;html=1;rounded=0;entryX=0.5;entryY=0;entryDx=0;entryDy=0;exitX=0.5;exitY=1;exitDx=0;exitDy=0;" edge="1" parent="1" source="62893188c0fa7362-20" target="O_QZW4D6xSMb0RWuD4Pj-35">
          <mxGeometry width="50" height="50" relative="1" as="geometry">
            <mxPoint x="720" y="-1410" as="sourcePoint" />
            <mxPoint x="710" y="-1670" as="targetPoint" />
          </mxGeometry>
        </mxCell>
        <mxCell id="O_QZW4D6xSMb0RWuD4Pj-41" value="" style="endArrow=classic;html=1;rounded=0;entryX=0.5;entryY=0;entryDx=0;entryDy=0;exitX=0.5;exitY=1;exitDx=0;exitDy=0;" edge="1" parent="1" source="62893188c0fa7362-20" target="O_QZW4D6xSMb0RWuD4Pj-36">
          <mxGeometry width="50" height="50" relative="1" as="geometry">
            <mxPoint x="740" y="-1400" as="sourcePoint" />
            <mxPoint x="690" y="-1360" as="targetPoint" />
          </mxGeometry>
        </mxCell>
        <mxCell id="O_QZW4D6xSMb0RWuD4Pj-42" value="" style="endArrow=classic;html=1;rounded=0;entryX=0.5;entryY=0;entryDx=0;entryDy=0;" edge="1" parent="1" target="O_QZW4D6xSMb0RWuD4Pj-37">
          <mxGeometry width="50" height="50" relative="1" as="geometry">
            <mxPoint x="730" y="-1410" as="sourcePoint" />
            <mxPoint x="910" y="-1380" as="targetPoint" />
          </mxGeometry>
        </mxCell>
        <mxCell id="O_QZW4D6xSMb0RWuD4Pj-47" value="NomCaissier" style="text;html=1;strokeColor=none;fillColor=none;align=center;verticalAlign=middle;whiteSpace=wrap;rounded=0;" vertex="1" parent="1">
          <mxGeometry x="560" y="-485" width="60" height="30" as="geometry" />
        </mxCell>
        <mxCell id="O_QZW4D6xSMb0RWuD4Pj-48" value="PrenomCaissier" style="text;html=1;strokeColor=none;fillColor=none;align=center;verticalAlign=middle;whiteSpace=wrap;rounded=0;" vertex="1" parent="1">
          <mxGeometry x="780" y="-485" width="60" height="30" as="geometry" />
        </mxCell>
        <mxCell id="O_QZW4D6xSMb0RWuD4Pj-49" value="" style="endArrow=classic;html=1;rounded=0;exitX=0.5;exitY=1;exitDx=0;exitDy=0;entryX=0.5;entryY=0;entryDx=0;entryDy=0;" edge="1" parent="1" target="O_QZW4D6xSMb0RWuD4Pj-48">
          <mxGeometry width="50" height="50" relative="1" as="geometry">
            <mxPoint x="700" y="-505" as="sourcePoint" />
            <mxPoint x="810" y="-505" as="targetPoint" />
          </mxGeometry>
        </mxCell>
        <mxCell id="O_QZW4D6xSMb0RWuD4Pj-50" value="" style="endArrow=classic;html=1;rounded=0;entryX=0.5;entryY=0;entryDx=0;entryDy=0;" edge="1" parent="1" target="O_QZW4D6xSMb0RWuD4Pj-47">
          <mxGeometry width="50" height="50" relative="1" as="geometry">
            <mxPoint x="700" y="-505" as="sourcePoint" />
            <mxPoint x="820" y="-475" as="targetPoint" />
          </mxGeometry>
        </mxCell>
        <mxCell id="O_QZW4D6xSMb0RWuD4Pj-51" value="NomLivreur" style="text;html=1;strokeColor=none;fillColor=none;align=center;verticalAlign=middle;whiteSpace=wrap;rounded=0;" vertex="1" parent="1">
          <mxGeometry x="30" y="-470" width="60" height="30" as="geometry" />
        </mxCell>
        <mxCell id="O_QZW4D6xSMb0RWuD4Pj-52" value="" style="edgeStyle=orthogonalEdgeStyle;rounded=0;orthogonalLoop=1;jettySize=auto;html=1;entryX=0.5;entryY=0;entryDx=0;entryDy=0;exitX=0.5;exitY=1;exitDx=0;exitDy=0;" edge="1" parent="1" target="O_QZW4D6xSMb0RWuD4Pj-53">
          <mxGeometry relative="1" as="geometry">
            <mxPoint x="170" y="-510" as="sourcePoint" />
          </mxGeometry>
        </mxCell>
        <mxCell id="O_QZW4D6xSMb0RWuD4Pj-53" value="PrenomLivreur" style="text;html=1;strokeColor=none;fillColor=none;align=center;verticalAlign=middle;whiteSpace=wrap;rounded=0;" vertex="1" parent="1">
          <mxGeometry x="140" y="-470" width="60" height="30" as="geometry" />
        </mxCell>
        <mxCell id="O_QZW4D6xSMb0RWuD4Pj-54" value="TypeVehicule" style="text;html=1;strokeColor=none;fillColor=none;align=center;verticalAlign=middle;whiteSpace=wrap;rounded=0;" vertex="1" parent="1">
          <mxGeometry x="250" y="-470" width="60" height="30" as="geometry" />
        </mxCell>
        <mxCell id="O_QZW4D6xSMb0RWuD4Pj-55" value="" style="endArrow=classic;html=1;rounded=0;exitX=0.5;exitY=1;exitDx=0;exitDy=0;entryX=0.5;entryY=0;entryDx=0;entryDy=0;" edge="1" parent="1" target="O_QZW4D6xSMb0RWuD4Pj-54">
          <mxGeometry width="50" height="50" relative="1" as="geometry">
            <mxPoint x="170" y="-510" as="sourcePoint" />
            <mxPoint x="260" y="-600" as="targetPoint" />
          </mxGeometry>
        </mxCell>
        <mxCell id="O_QZW4D6xSMb0RWuD4Pj-56" value="" style="endArrow=classic;html=1;rounded=0;entryX=0.5;entryY=0;entryDx=0;entryDy=0;" edge="1" parent="1" target="O_QZW4D6xSMb0RWuD4Pj-51">
          <mxGeometry width="50" height="50" relative="1" as="geometry">
            <mxPoint x="170" y="-510" as="sourcePoint" />
            <mxPoint x="110" y="-500" as="targetPoint" />
          </mxGeometry>
        </mxCell>
        <mxCell id="O_QZW4D6xSMb0RWuD4Pj-57" value="DateCommande" style="text;html=1;strokeColor=none;fillColor=none;align=center;verticalAlign=middle;whiteSpace=wrap;rounded=0;" vertex="1" parent="1">
          <mxGeometry x="280" y="-610" width="60" height="30" as="geometry" />
        </mxCell>
        <mxCell id="O_QZW4D6xSMb0RWuD4Pj-58" value="" style="edgeStyle=orthogonalEdgeStyle;rounded=0;orthogonalLoop=1;jettySize=auto;html=1;entryX=0.5;entryY=0;entryDx=0;entryDy=0;exitX=0.5;exitY=1;exitDx=0;exitDy=0;" edge="1" parent="1">
          <mxGeometry relative="1" as="geometry">
            <mxPoint x="450" y="-650" as="sourcePoint" />
            <mxPoint x="450" y="-595" as="targetPoint" />
          </mxGeometry>
        </mxCell>
        <mxCell id="O_QZW4D6xSMb0RWuD4Pj-59" value="HeureCommande" style="text;html=1;strokeColor=none;fillColor=none;align=center;verticalAlign=middle;whiteSpace=wrap;rounded=0;" vertex="1" parent="1">
          <mxGeometry x="430" y="-595" width="60" height="30" as="geometry" />
        </mxCell>
        <mxCell id="O_QZW4D6xSMb0RWuD4Pj-60" value="StatutPaiement" style="text;html=1;strokeColor=none;fillColor=none;align=center;verticalAlign=middle;whiteSpace=wrap;rounded=0;" vertex="1" parent="1">
          <mxGeometry x="530" y="-610" width="60" height="30" as="geometry" />
        </mxCell>
        <mxCell id="O_QZW4D6xSMb0RWuD4Pj-61" value="" style="endArrow=classic;html=1;rounded=0;exitX=0.5;exitY=1;exitDx=0;exitDy=0;entryX=0.5;entryY=0;entryDx=0;entryDy=0;" edge="1" parent="1" target="O_QZW4D6xSMb0RWuD4Pj-60">
          <mxGeometry width="50" height="50" relative="1" as="geometry">
            <mxPoint x="450" y="-650" as="sourcePoint" />
            <mxPoint x="540" y="-740" as="targetPoint" />
          </mxGeometry>
        </mxCell>
        <mxCell id="O_QZW4D6xSMb0RWuD4Pj-62" value="" style="endArrow=classic;html=1;rounded=0;entryX=0.5;entryY=0;entryDx=0;entryDy=0;" edge="1" parent="1" target="O_QZW4D6xSMb0RWuD4Pj-57">
          <mxGeometry width="50" height="50" relative="1" as="geometry">
            <mxPoint x="450" y="-650" as="sourcePoint" />
            <mxPoint x="390" y="-640" as="targetPoint" />
          </mxGeometry>
        </mxCell>
        <mxCell id="O_QZW4D6xSMb0RWuD4Pj-63" value="NomIngredient" style="text;html=1;strokeColor=none;fillColor=none;align=center;verticalAlign=middle;whiteSpace=wrap;rounded=0;" vertex="1" parent="1">
          <mxGeometry x="1370" y="-895" width="60" height="30" as="geometry" />
        </mxCell>
        <mxCell id="O_QZW4D6xSMb0RWuD4Pj-64" value="" style="edgeStyle=orthogonalEdgeStyle;rounded=0;orthogonalLoop=1;jettySize=auto;html=1;entryX=0.5;entryY=0;entryDx=0;entryDy=0;exitX=0.5;exitY=1;exitDx=0;exitDy=0;" edge="1" parent="1" target="O_QZW4D6xSMb0RWuD4Pj-65">
          <mxGeometry relative="1" as="geometry">
            <mxPoint x="1510" y="-935" as="sourcePoint" />
          </mxGeometry>
        </mxCell>
        <mxCell id="O_QZW4D6xSMb0RWuD4Pj-65" value="QuantitéStock" style="text;html=1;strokeColor=none;fillColor=none;align=center;verticalAlign=middle;whiteSpace=wrap;rounded=0;" vertex="1" parent="1">
          <mxGeometry x="1480" y="-895" width="60" height="30" as="geometry" />
        </mxCell>
        <mxCell id="O_QZW4D6xSMb0RWuD4Pj-66" value="SeuilAlerte" style="text;html=1;strokeColor=none;fillColor=none;align=center;verticalAlign=middle;whiteSpace=wrap;rounded=0;" vertex="1" parent="1">
          <mxGeometry x="1590" y="-895" width="60" height="30" as="geometry" />
        </mxCell>
        <mxCell id="O_QZW4D6xSMb0RWuD4Pj-67" value="" style="endArrow=classic;html=1;rounded=0;exitX=0.5;exitY=1;exitDx=0;exitDy=0;entryX=0.5;entryY=0;entryDx=0;entryDy=0;" edge="1" parent="1" target="O_QZW4D6xSMb0RWuD4Pj-66">
          <mxGeometry width="50" height="50" relative="1" as="geometry">
            <mxPoint x="1510" y="-935" as="sourcePoint" />
            <mxPoint x="1600" y="-1025" as="targetPoint" />
          </mxGeometry>
        </mxCell>
        <mxCell id="O_QZW4D6xSMb0RWuD4Pj-68" value="" style="endArrow=classic;html=1;rounded=0;entryX=0.5;entryY=0;entryDx=0;entryDy=0;" edge="1" parent="1" target="O_QZW4D6xSMb0RWuD4Pj-63">
          <mxGeometry width="50" height="50" relative="1" as="geometry">
            <mxPoint x="1510" y="-935" as="sourcePoint" />
            <mxPoint x="1450" y="-925" as="targetPoint" />
          </mxGeometry>
        </mxCell>
        <mxCell id="O_QZW4D6xSMb0RWuD4Pj-69" value="NomPizza" style="text;html=1;strokeColor=none;fillColor=none;align=center;verticalAlign=middle;whiteSpace=wrap;rounded=0;" vertex="1" parent="1">
          <mxGeometry x="1120" y="-1040" width="60" height="30" as="geometry" />
        </mxCell>
        <mxCell id="O_QZW4D6xSMb0RWuD4Pj-70" value="" style="edgeStyle=orthogonalEdgeStyle;rounded=0;orthogonalLoop=1;jettySize=auto;html=1;entryX=0.5;entryY=0;entryDx=0;entryDy=0;exitX=0.5;exitY=1;exitDx=0;exitDy=0;" edge="1" parent="1" target="O_QZW4D6xSMb0RWuD4Pj-71">
          <mxGeometry relative="1" as="geometry">
            <mxPoint x="1260" y="-1080" as="sourcePoint" />
          </mxGeometry>
        </mxCell>
        <mxCell id="O_QZW4D6xSMb0RWuD4Pj-71" value="DescriptionPizza" style="text;html=1;strokeColor=none;fillColor=none;align=center;verticalAlign=middle;whiteSpace=wrap;rounded=0;" vertex="1" parent="1">
          <mxGeometry x="1230" y="-1040" width="60" height="30" as="geometry" />
        </mxCell>
        <mxCell id="O_QZW4D6xSMb0RWuD4Pj-72" value="PrixBasePizza" style="text;html=1;strokeColor=none;fillColor=none;align=center;verticalAlign=middle;whiteSpace=wrap;rounded=0;" vertex="1" parent="1">
          <mxGeometry x="1340" y="-1040" width="60" height="30" as="geometry" />
        </mxCell>
        <mxCell id="O_QZW4D6xSMb0RWuD4Pj-73" value="" style="endArrow=classic;html=1;rounded=0;exitX=0.5;exitY=1;exitDx=0;exitDy=0;entryX=0.5;entryY=0;entryDx=0;entryDy=0;" edge="1" parent="1" target="O_QZW4D6xSMb0RWuD4Pj-72">
          <mxGeometry width="50" height="50" relative="1" as="geometry">
            <mxPoint x="1260" y="-1080" as="sourcePoint" />
            <mxPoint x="1350" y="-1170" as="targetPoint" />
          </mxGeometry>
        </mxCell>
        <mxCell id="O_QZW4D6xSMb0RWuD4Pj-74" value="" style="endArrow=classic;html=1;rounded=0;entryX=0.5;entryY=0;entryDx=0;entryDy=0;" edge="1" parent="1" target="O_QZW4D6xSMb0RWuD4Pj-69">
          <mxGeometry width="50" height="50" relative="1" as="geometry">
            <mxPoint x="1260" y="-1080" as="sourcePoint" />
            <mxPoint x="1200" y="-1070" as="targetPoint" />
          </mxGeometry>
        </mxCell>
        <mxCell id="O_QZW4D6xSMb0RWuD4Pj-80" value="NomAllergene" style="text;html=1;strokeColor=none;fillColor=none;align=center;verticalAlign=middle;whiteSpace=wrap;rounded=0;" vertex="1" parent="1">
          <mxGeometry x="1550" y="-745" width="60" height="30" as="geometry" />
        </mxCell>
        <mxCell id="O_QZW4D6xSMb0RWuD4Pj-81" value="EffetAllergene" style="text;html=1;strokeColor=none;fillColor=none;align=center;verticalAlign=middle;whiteSpace=wrap;rounded=0;" vertex="1" parent="1">
          <mxGeometry x="1770" y="-745" width="60" height="30" as="geometry" />
        </mxCell>
        <mxCell id="O_QZW4D6xSMb0RWuD4Pj-82" value="" style="endArrow=classic;html=1;rounded=0;exitX=0.5;exitY=1;exitDx=0;exitDy=0;entryX=0.5;entryY=0;entryDx=0;entryDy=0;" edge="1" parent="1" target="O_QZW4D6xSMb0RWuD4Pj-81">
          <mxGeometry width="50" height="50" relative="1" as="geometry">
            <mxPoint x="1690" y="-765" as="sourcePoint" />
            <mxPoint x="1800" y="-765" as="targetPoint" />
          </mxGeometry>
        </mxCell>
        <mxCell id="O_QZW4D6xSMb0RWuD4Pj-83" value="" style="endArrow=classic;html=1;rounded=0;entryX=0.5;entryY=0;entryDx=0;entryDy=0;" edge="1" parent="1" target="O_QZW4D6xSMb0RWuD4Pj-80">
          <mxGeometry width="50" height="50" relative="1" as="geometry">
            <mxPoint x="1690" y="-765" as="sourcePoint" />
            <mxPoint x="1810" y="-735" as="targetPoint" />
          </mxGeometry>
        </mxCell>
        <mxCell id="O_QZW4D6xSMb0RWuD4Pj-84" value="NomPizzaiolo" style="text;html=1;strokeColor=none;fillColor=none;align=center;verticalAlign=middle;whiteSpace=wrap;rounded=0;" vertex="1" parent="1">
          <mxGeometry x="970" y="-840" width="60" height="30" as="geometry" />
        </mxCell>
        <mxCell id="O_QZW4D6xSMb0RWuD4Pj-85" value="PrenomPizzaiolo" style="text;html=1;strokeColor=none;fillColor=none;align=center;verticalAlign=middle;whiteSpace=wrap;rounded=0;" vertex="1" parent="1">
          <mxGeometry x="1190" y="-840" width="60" height="30" as="geometry" />
        </mxCell>
        <mxCell id="O_QZW4D6xSMb0RWuD4Pj-86" value="" style="endArrow=classic;html=1;rounded=0;exitX=0.5;exitY=1;exitDx=0;exitDy=0;entryX=0.5;entryY=0;entryDx=0;entryDy=0;" edge="1" parent="1" target="O_QZW4D6xSMb0RWuD4Pj-85">
          <mxGeometry width="50" height="50" relative="1" as="geometry">
            <mxPoint x="1110" y="-860" as="sourcePoint" />
            <mxPoint x="1220" y="-860" as="targetPoint" />
          </mxGeometry>
        </mxCell>
        <mxCell id="O_QZW4D6xSMb0RWuD4Pj-87" value="" style="endArrow=classic;html=1;rounded=0;entryX=0.5;entryY=0;entryDx=0;entryDy=0;" edge="1" parent="1" target="O_QZW4D6xSMb0RWuD4Pj-84">
          <mxGeometry width="50" height="50" relative="1" as="geometry">
            <mxPoint x="1110" y="-860" as="sourcePoint" />
            <mxPoint x="1230" y="-830" as="targetPoint" />
          </mxGeometry>
        </mxCell>
        <mxCell id="O_QZW4D6xSMb0RWuD4Pj-88" value="Quantité" style="text;html=1;strokeColor=none;fillColor=none;align=center;verticalAlign=middle;whiteSpace=wrap;rounded=0;" vertex="1" parent="1">
          <mxGeometry x="1030" y="-1280" width="60" height="30" as="geometry" />
        </mxCell>
        <mxCell id="O_QZW4D6xSMb0RWuD4Pj-89" value="PrixUnitaire" style="text;html=1;strokeColor=none;fillColor=none;align=center;verticalAlign=middle;whiteSpace=wrap;rounded=0;" vertex="1" parent="1">
          <mxGeometry x="1250" y="-1280" width="60" height="30" as="geometry" />
        </mxCell>
        <mxCell id="O_QZW4D6xSMb0RWuD4Pj-90" value="" style="endArrow=classic;html=1;rounded=0;exitX=0.5;exitY=1;exitDx=0;exitDy=0;entryX=0.5;entryY=0;entryDx=0;entryDy=0;" edge="1" parent="1" target="O_QZW4D6xSMb0RWuD4Pj-89">
          <mxGeometry width="50" height="50" relative="1" as="geometry">
            <mxPoint x="1170" y="-1300" as="sourcePoint" />
            <mxPoint x="1280" y="-1300" as="targetPoint" />
          </mxGeometry>
        </mxCell>
        <mxCell id="O_QZW4D6xSMb0RWuD4Pj-91" value="" style="endArrow=classic;html=1;rounded=0;entryX=0.5;entryY=0;entryDx=0;entryDy=0;" edge="1" parent="1" target="O_QZW4D6xSMb0RWuD4Pj-88">
          <mxGeometry width="50" height="50" relative="1" as="geometry">
            <mxPoint x="1170" y="-1300" as="sourcePoint" />
            <mxPoint x="1290" y="-1270" as="targetPoint" />
          </mxGeometry>
        </mxCell>
        <mxCell id="O_QZW4D6xSMb0RWuD4Pj-95" value="" style="endArrow=classic;html=1;rounded=0;exitX=0.5;exitY=1;exitDx=0;exitDy=0;dashed=1;dashPattern=8 8;entryX=0.5;entryY=0;entryDx=0;entryDy=0;" edge="1" parent="1" source="62893188c0fa7362-11" target="62893188c0fa7362-21">
          <mxGeometry width="50" height="50" relative="1" as="geometry">
            <mxPoint x="470" y="-520" as="sourcePoint" />
            <mxPoint x="270" y="-660" as="targetPoint" />
          </mxGeometry>
        </mxCell>
        <mxCell id="O_QZW4D6xSMb0RWuD4Pj-102" value="" style="endArrow=classic;html=1;rounded=0;dashed=1;dashPattern=8 8;entryX=0.5;entryY=0;entryDx=0;entryDy=0;exitX=1;exitY=0.5;exitDx=0;exitDy=0;" edge="1" parent="1" source="O_QZW4D6xSMb0RWuD4Pj-8" target="O_QZW4D6xSMb0RWuD4Pj-4">
          <mxGeometry width="50" height="50" relative="1" as="geometry">
            <mxPoint x="1530" y="-1080" as="sourcePoint" />
            <mxPoint x="1320" y="-1110" as="targetPoint" />
            <Array as="points">
              <mxPoint x="1510" y="-1110" />
            </Array>
          </mxGeometry>
        </mxCell>
        <mxCell id="MdKMuLw8w7JI5PUpyUUQ-2" value="" style="endArrow=classic;html=1;rounded=0;entryX=0.5;entryY=0;entryDx=0;entryDy=0;dashed=1;dashPattern=8 8;" edge="1" parent="1" source="62893188c0fa7362-20" target="62893188c0fa7362-11">
          <mxGeometry width="50" height="50" relative="1" as="geometry">
            <mxPoint x="580" y="-1280" as="sourcePoint" />
            <mxPoint x="630" y="-1330" as="targetPoint" />
            <Array as="points">
              <mxPoint x="520" y="-1440" />
            </Array>
          </mxGeometry>
        </mxCell>
        <mxCell id="MdKMuLw8w7JI5PUpyUUQ-3" value="ID_Paiement" style="whiteSpace=wrap;html=1;rounded=0;shadow=1;labelBackgroundColor=none;strokeWidth=2;fontFamily=Verdana;fontSize=12;align=center;" vertex="1" parent="1">
          <mxGeometry x="390" y="-410" width="120" height="60" as="geometry" />
        </mxCell>
        <mxCell id="MdKMuLw8w7JI5PUpyUUQ-4" value="TypePaiement" style="text;html=1;strokeColor=none;fillColor=none;align=center;verticalAlign=middle;whiteSpace=wrap;rounded=0;" vertex="1" parent="1">
          <mxGeometry x="270" y="-310" width="60" height="30" as="geometry" />
        </mxCell>
        <mxCell id="MdKMuLw8w7JI5PUpyUUQ-5" value="DatePaiement" style="text;html=1;strokeColor=none;fillColor=none;align=center;verticalAlign=middle;whiteSpace=wrap;rounded=0;" vertex="1" parent="1">
          <mxGeometry x="370" y="-310" width="60" height="30" as="geometry" />
        </mxCell>
        <mxCell id="MdKMuLw8w7JI5PUpyUUQ-6" value="HeurePaiement" style="text;html=1;strokeColor=none;fillColor=none;align=center;verticalAlign=middle;whiteSpace=wrap;rounded=0;" vertex="1" parent="1">
          <mxGeometry x="490" y="-310" width="60" height="30" as="geometry" />
        </mxCell>
        <mxCell id="MdKMuLw8w7JI5PUpyUUQ-7" value="montantPaiement" style="text;html=1;strokeColor=none;fillColor=none;align=center;verticalAlign=middle;whiteSpace=wrap;rounded=0;" vertex="1" parent="1">
          <mxGeometry x="610" y="-310" width="60" height="30" as="geometry" />
        </mxCell>
        <mxCell id="MdKMuLw8w7JI5PUpyUUQ-8" value="" style="endArrow=classic;html=1;rounded=0;exitX=0.5;exitY=1;exitDx=0;exitDy=0;entryX=0.5;entryY=0;entryDx=0;entryDy=0;" edge="1" parent="1" source="MdKMuLw8w7JI5PUpyUUQ-3" target="MdKMuLw8w7JI5PUpyUUQ-4">
          <mxGeometry width="50" height="50" relative="1" as="geometry">
            <mxPoint x="220" y="-290" as="sourcePoint" />
            <mxPoint x="330" y="-450" as="targetPoint" />
          </mxGeometry>
        </mxCell>
        <mxCell id="MdKMuLw8w7JI5PUpyUUQ-9" value="" style="endArrow=classic;html=1;rounded=0;entryX=0.5;entryY=0;entryDx=0;entryDy=0;exitX=0.5;exitY=1;exitDx=0;exitDy=0;" edge="1" parent="1" source="MdKMuLw8w7JI5PUpyUUQ-3" target="MdKMuLw8w7JI5PUpyUUQ-5">
          <mxGeometry width="50" height="50" relative="1" as="geometry">
            <mxPoint x="440" y="-350" as="sourcePoint" />
            <mxPoint x="430" y="-610" as="targetPoint" />
          </mxGeometry>
        </mxCell>
        <mxCell id="MdKMuLw8w7JI5PUpyUUQ-10" value="" style="endArrow=classic;html=1;rounded=0;entryX=0.5;entryY=0;entryDx=0;entryDy=0;exitX=0.5;exitY=1;exitDx=0;exitDy=0;" edge="1" parent="1" source="MdKMuLw8w7JI5PUpyUUQ-3" target="MdKMuLw8w7JI5PUpyUUQ-6">
          <mxGeometry width="50" height="50" relative="1" as="geometry">
            <mxPoint x="460" y="-340" as="sourcePoint" />
            <mxPoint x="410" y="-300" as="targetPoint" />
          </mxGeometry>
        </mxCell>
        <mxCell id="MdKMuLw8w7JI5PUpyUUQ-11" value="" style="endArrow=classic;html=1;rounded=0;entryX=0.5;entryY=0;entryDx=0;entryDy=0;" edge="1" parent="1" target="MdKMuLw8w7JI5PUpyUUQ-7">
          <mxGeometry width="50" height="50" relative="1" as="geometry">
            <mxPoint x="450" y="-350" as="sourcePoint" />
            <mxPoint x="630" y="-320" as="targetPoint" />
          </mxGeometry>
        </mxCell>
        <mxCell id="MdKMuLw8w7JI5PUpyUUQ-12" value="" style="endArrow=classic;html=1;rounded=0;exitX=0;exitY=0.5;exitDx=0;exitDy=0;dashed=1;dashPattern=8 8;" edge="1" parent="1" source="O_QZW4D6xSMb0RWuD4Pj-3">
          <mxGeometry width="50" height="50" relative="1" as="geometry">
            <mxPoint x="180" y="-640" as="sourcePoint" />
            <mxPoint x="170" y="-580" as="targetPoint" />
            <Array as="points">
              <mxPoint x="170" y="-680" />
            </Array>
          </mxGeometry>
        </mxCell>
        <mxCell id="MdKMuLw8w7JI5PUpyUUQ-13" value="" style="endArrow=classic;html=1;rounded=0;entryX=0.5;entryY=0;entryDx=0;entryDy=0;dashed=1;dashPattern=8 8;" edge="1" parent="1" target="MdKMuLw8w7JI5PUpyUUQ-3">
          <mxGeometry width="50" height="50" relative="1" as="geometry">
            <mxPoint x="450" y="-650" as="sourcePoint" />
            <mxPoint x="470" y="-500" as="targetPoint" />
            <Array as="points">
              <mxPoint x="380" y="-550" />
            </Array>
          </mxGeometry>
        </mxCell>
        <mxCell id="MdKMuLw8w7JI5PUpyUUQ-14" value="" style="endArrow=classic;html=1;rounded=0;exitX=1;exitY=0.5;exitDx=0;exitDy=0;dashed=1;dashPattern=8 8;" edge="1" parent="1" source="O_QZW4D6xSMb0RWuD4Pj-3">
          <mxGeometry width="50" height="50" relative="1" as="geometry">
            <mxPoint x="570" y="-690" as="sourcePoint" />
            <mxPoint x="700" y="-570" as="targetPoint" />
            <Array as="points">
              <mxPoint x="700" y="-680" />
            </Array>
          </mxGeometry>
        </mxCell>
        <mxCell id="MdKMuLw8w7JI5PUpyUUQ-15" value="" style="endArrow=classic;html=1;rounded=0;dashed=1;dashPattern=8 8;" edge="1" parent="1">
          <mxGeometry width="50" height="50" relative="1" as="geometry">
            <mxPoint x="1570" y="-960" as="sourcePoint" />
            <mxPoint x="1690" y="-830" as="targetPoint" />
            <Array as="points">
              <mxPoint x="1690" y="-960" />
            </Array>
          </mxGeometry>
        </mxCell>
        <mxCell id="MdKMuLw8w7JI5PUpyUUQ-16" value="" style="endArrow=classic;html=1;rounded=0;exitX=0.5;exitY=0;exitDx=0;exitDy=0;entryX=0;entryY=0.5;entryDx=0;entryDy=0;dashed=1;dashPattern=8 8;" edge="1" parent="1" source="O_QZW4D6xSMb0RWuD4Pj-3" target="O_QZW4D6xSMb0RWuD4Pj-2">
          <mxGeometry width="50" height="50" relative="1" as="geometry">
            <mxPoint x="410" y="-740" as="sourcePoint" />
            <mxPoint x="450" y="-870" as="targetPoint" />
            <Array as="points">
              <mxPoint x="450" y="-840" />
            </Array>
          </mxGeometry>
        </mxCell>
        <mxCell id="MdKMuLw8w7JI5PUpyUUQ-17" value="" style="endArrow=classic;html=1;rounded=0;exitX=0;exitY=0.5;exitDx=0;exitDy=0;entryX=0.386;entryY=0.013;entryDx=0;entryDy=0;entryPerimeter=0;dashed=1;dashPattern=8 8;" edge="1" parent="1" source="O_QZW4D6xSMb0RWuD4Pj-8" target="O_QZW4D6xSMb0RWuD4Pj-7">
          <mxGeometry width="50" height="50" relative="1" as="geometry">
            <mxPoint x="930" y="-1070" as="sourcePoint" />
            <mxPoint x="780" y="-1120" as="targetPoint" />
            <Array as="points">
              <mxPoint x="1100" y="-1110" />
            </Array>
          </mxGeometry>
        </mxCell>
        <mxCell id="MdKMuLw8w7JI5PUpyUUQ-19" value="" style="endArrow=classic;html=1;rounded=0;entryX=0.5;entryY=0;entryDx=0;entryDy=0;dashed=1;dashPattern=8 8;" edge="1" parent="1" target="O_QZW4D6xSMb0RWuD4Pj-8">
          <mxGeometry width="50" height="50" relative="1" as="geometry">
            <mxPoint x="1170" y="-1300" as="sourcePoint" />
            <mxPoint x="1380" y="-1180" as="targetPoint" />
            <Array as="points">
              <mxPoint x="1170" y="-1180" />
              <mxPoint x="1260" y="-1180" />
            </Array>
          </mxGeometry>
        </mxCell>
      </root>
    </mxGraphModel>
  </diagram>
</mxfile>
